[Header]
FileType HTR
DataType HTRS
FileVersion 1
NumSegments 64
NumFrames 3
DataFrameRate 30
EulerRotationOrder ZYX
CalibrationUnits mm
RotationUnits Degrees
GlobalAxisofGravity Y
BoneLengthAxis Y
ScaleFactor 1.0
[SegmentNames&Hierarchy]
Hips	GLOBAL
Spine	Hips
Spine1	Spine
Spine2	Spine1
Neck	Spine2
Head	Neck
LeftEye	Head
RightEye	Head
LeftShoulder	Spine2
LeftArm	LeftShoulder
LeftForeArm	LeftArm
LeftHand	LeftForeArm
LeftHandThumb1	LeftHand
LeftHandThumb2	LeftHandThumb1
LeftHandThumb3	LeftHandThumb2
LeftHandThumb4	LeftHandThumb3
LeftHandIndex1	LeftHand
LeftHandIndex2	LeftHandIndex1
LeftHandIndex3	LeftHandIndex2
LeftHandIndex4	LeftHandIndex3
LeftHandMiddle1	LeftHand
LeftHandMiddle2	LeftHandMiddle1
LeftHandMiddle3	LeftHandMiddle2
LeftHandMiddle4	LeftHandMiddle3
LeftHandRing1	LeftHand
LeftHandRing2	LeftHandRing1
LeftHandRing3	LeftHandRing2
LeftHandRing4	LeftHandRing3
LeftHandPinky1	LeftHand
LeftHandPinky2	LeftHandPinky1
LeftHandPinky3	LeftHandPinky2
LeftHandPinky4	LeftHandPinky3
RightShoulder	Spine2
RightArm	RightShoulder
RightForeArm	RightArm
RightHand	RightForeArm
RightHandPinky1	RightHand
RightHandPinky2	RightHandPinky1
RightHandPinky3	RightHandPinky2
RightHandPinky4	RightHandPinky3
RightHandRing1	RightHand
RightHandRing2	RightHandRing1
RightHandRing3	RightHandRing2
RightHandRing4	RightHandRing3
RightHandMiddle1	RightHand
RightHandMiddle2	RightHandMiddle1
RightHandMiddle3	RightHandMiddle2
RightHandMiddle4	RightHandMiddle3
RightHandIndex1	RightHand
RightHandIndex2	RightHandIndex1
RightHandIndex3	RightHandIndex2
RightHandIndex4	RightHandIndex3
RightHandThumb1	RightHand
RightHandThumb2	RightHandThumb1
RightHandThumb3	RightHandThumb2
RightHandThumb4	RightHandThumb3
LeftUpLeg	Hips
LeftLeg	LeftUpLeg
LeftFoot	LeftLeg
LeftToeBase	LeftFoot
RightUpLeg	Hips
RightLeg	RightUpLeg
RightFoot	RightLeg
RightToeBase	RightFoot
[BasePosition]
Hips	0	0	0	0	0	0	1
Spine	0	0	0	0	0	0	1
Spine1	0	0	0	0	0	0	1
Spine2	0	0	0	0	0	0	1
Neck	0	0	0	0	0	0	1
Head	0	0	0	0	0	0	1
LeftEye	0	0	0	0	0	0	1
RightEye	0	0	0	0	0	0	1
LeftShoulder	0	0	0	0	0	0	1
LeftArm	0	0	0	0	0	0	1
LeftForeArm	0	0	0	0	0	0	1
LeftHand	0	0	0	0	0	0	1
LeftHandThumb1	0	0	0	0	0	0	1
LeftHandThumb2	0	0	0	0	0	0	1
LeftHandThumb3	0	0	0	0	0	0	1
LeftHandThumb4	0	0	0	0	0	0	1
LeftHandIndex1	0	0	0	0	0	0	1
LeftHandIndex2	0	0	0	0	0	0	1
LeftHandIndex3	0	0	0	0	0	0	1
LeftHandIndex4	0	0	0	0	0	0	1
LeftHandMiddle1	0	0	0	0	0	0	1
LeftHandMiddle2	0	0	0	0	0	0	1
LeftHandMiddle3	0	0	0	0	0	0	1
LeftHandMiddle4	0	0	0	0	0	0	1
LeftHandRing1	0	0	0	0	0	0	1
LeftHandRing2	0	0	0	0	0	0	1
LeftHandRing3	0	0	0	0	0	0	1
LeftHandRing4	0	0	0	0	0	0	1
LeftHandPinky1	0	0	0	0	0	0	1
LeftHandPinky2	0	0	0	0	0	0	1
LeftHandPinky3	0	0	0	0	0	0	1
LeftHandPinky4	0	0	0	0	0	0	1
RightShoulder	0	0	0	0	0	0	1
RightArm	0	0	0	0	0	0	1
RightForeArm	0	0	0	0	0	0	1
RightHand	0	0	0	0	0	0	1
RightHandPinky1	0	0	0	0	0	0	1
RightHandPinky2	0	0	0	0	0	0	1
RightHandPinky3	0	0	0	0	0	0	1
RightHandPinky4	0	0	0	0	0	0	1
RightHandRing1	0	0	0	0	0	0	1
RightHandRing2	0	0	0	0	0	0	1
RightHandRing3	0	0	0	0	0	0	1
RightHandRing4	0	0	0	0	0	0	1
RightHandMiddle1	0	0	0	0	0	0	1
RightHandMiddle2	0	0	0	0	0	0	1
RightHandMiddle3	0	0	0	0	0	0	1
RightHandMiddle4	0	0	0	0	0	0	1
RightHandIndex1	0	0	0	0	0	0	1
RightHandIndex2	0	0	0	0	0	0	1
RightHandIndex3	0	0	0	0	0	0	1
RightHandIndex4	0	0	0	0	0	0	1
RightHandThumb1	0	0	0	0	0	0	1
RightHandThumb2	0	0	0	0	0	0	1
RightHandThumb3	0	0	0	0	0	0	1
RightHandThumb4	0	0	0	0	0	0	1
LeftUpLeg	0	0	0	0	0	0	1
LeftLeg	0	0	0	0	0	0	1
LeftFoot	0	0	0	0	0	0	1
LeftToeBase	0	0	0	0	0	0	1
RightUpLeg	0	0	0	0	0	0	1
RightLeg	0	0	0	0	0	0	1
RightFoot	0	0	0	0	0	0	1
RightToeBase	0	0	0	0	0	0	1
[Hips]
30	1689.61792	970.0235596	9.069643974	-7.860575199	68.76395416	-15.29969406	1.0
31	1742.184082	985.4543457	7.201664925	-2.884904623	67.12854767	-10.4210043	1.0
32	1793.608398	999.1109619	6.716215611	1.154333711	66.25975037	-6.713361263	1.0
[Spine]
30	0	101.8159943	1.315000057	5.707836628	-10.55804157	5.833708286	1.0
31	0	101.8159943	1.315000057	5.880489826	-8.930522919	3.968576908	1.0
32	0	101.8159943	1.315000057	5.891486645	-7.932813168	2.089681387	1.0
[Spine1]
30	0	100.8349991	-10.00800037	4.039435387	-6.665501118	2.288886309	1.0
31	0	100.8349991	-10.00800037	4.143267155	-5.955935955	1.776183009	1.0
32	0	100.8349991	-10.00800037	4.185586929	-5.331253052	1.244254708	1.0
[Spine2]
30	0	91	-13.73399925	3.994556904	-6.687144756	2.275144339	1.0
31	0	91	-13.73399925	4.112542629	-5.975776196	1.766038179	1.0
32	0	91	-13.73399925	4.160883904	-5.355867863	1.229020357	1.0
[Neck]
30	0	166.7169952	-25.16200066	4.509068012	-5.772059917	-0.9490447044	1.0
31	0	166.7169952	-25.16200066	4.748352528	-5.826349735	-0.9697986841	1.0
32	0	166.7169952	-25.16200066	4.980938911	-5.932520866	-0.8724603653	1.0
[Head]
30	0	96.17900085	16.84999847	-12.69682884	-33.44347	11.47684097	1.0
31	0	96.17900085	16.84999847	-11.9532299	-33.69162369	11.31649876	1.0
32	0	96.17900085	16.84999847	-11.65806961	-34.03765106	11.43749523	1.0
[LeftEye]
30	30.6760006	64.09500122	92.83599854	0	0	0	1.0
31	30.6760006	64.09500122	92.83599854	0	0	0	1.0
32	30.6760006	64.09500122	92.83599854	0	0	0	1.0
[RightEye]
30	-30.6760006	64.09500122	92.83499908	0	0	0	1.0
31	-30.6760006	64.09500122	92.83499908	0	0	0	1.0
32	-30.6760006	64.09500122	92.83499908	0	0	0	1.0
[LeftShoulder]
30	45.70400238	109.4599991	-26.28000069	0.819101572	-8.770012856	-9.965156555	1.0
31	45.70400238	109.4599991	-26.28000069	1.369277954	-8.425098419	-9.930736542	1.0
32	45.70400238	109.4599991	-26.28000069	1.83646059	-8.020412445	-9.787370682	1.0
[LeftArm]
30	105.923996	-5.24600029	-22.32099915	35.82793808	-28.03163147	-63.45907211	1.0
31	105.923996	-5.24600029	-22.32099915	34.83098602	-26.71803856	-61.85892487	1.0
32	105.923996	-5.24600029	-22.32099915	33.76432419	-24.83605385	-60.1654129	1.0
[LeftForeArm]
30	278.414978	-0.0009999999311	0	8.195717527e-08	-13.84919357	-0.0002056374942	1.0
31	278.414978	-0.0009999999311	0	1.553987886e-06	-13.9975729	-0.0002203862532	1.0
32	278.414978	-0.0009999999311	0	8.461754533e-07	-15.2456131	-0.0002204581106	1.0
[LeftHand]
30	283.2879944	0	0	-4.921430111	-1.044111013	7.145845413	1.0
31	283.2879944	0	0	-1.865636349	-0.8509562612	5.4172225	1.0
32	283.2879944	0	0	-0.3394566774	-0.7730459571	4.59405899	1.0
[LeftHandThumb1]
30	24.6609993	-15.75	26.8239994	0.9464570284	1.151123047	0.2541034818	1.0
31	24.6609993	-15.75	26.8239994	0.9464570284	1.151123047	0.2541034818	1.0
32	24.6609993	-15.75	26.8239994	0.9464570284	1.151123047	0.2541034818	1.0
[LeftHandThumb2]
30	32.29800034	-18.64699936	18.64699936	15.38870621	0.987490356	17.36189461	1.0
31	32.29800034	-18.64699936	18.64699936	15.40867424	1.208364606	17.64371681	1.0
32	32.29800034	-18.64699936	18.64699936	15.54874611	2.211881876	18.01061249	1.0
[LeftHandThumb3]
30	26.52600098	-15.31499958	15.31499958	-3.303894758	-13.68573761	22.30577087	1.0
31	26.52600098	-15.31499958	15.31499958	-3.202429295	-13.42045498	22.30335236	1.0
32	26.52600098	-15.31499958	15.31499958	-2.929406166	-12.71844101	22.2643795	1.0
[LeftHandThumb4]
30	19.54599953	-11.28499985	11.28499985	0	0	0	1.0
31	19.54599953	-11.28499985	11.28499985	0	0	0	1.0
32	19.54599953	-11.28499985	11.28499985	0	0	0	1.0
[LeftHandIndex1]
30	91.09299469	-5.170999527	22.60099792	-1.443130374	-0.6220544577	-25.48555374	1.0
31	91.09299469	-5.170999527	22.60099792	-1.493269086	-0.9013476372	-25.54213524	1.0
32	91.09299469	-5.170999527	22.60099792	-1.519285083	-0.9683938026	-25.70518875	1.0
[LeftHandIndex2]
30	36.76399994	0	0	-0.1279308796	1.216130137	-12.00990868	1.0
31	36.76399994	0	0	-0.1280077398	1.216486931	-12.01352596	1.0
32	36.76399994	0	0	-0.1280113012	1.216494441	-12.01359653	1.0
[LeftHandIndex3]
30	28.83100128	0	0	-0.1331150383	1.240222216	-12.25160027	1.0
31	28.83100128	0	0	-0.1331915855	1.240579605	-12.25523663	1.0
32	28.83100128	0	0	-0.1331905425	1.240589142	-12.25528431	1.0
[LeftHandIndex4]
30	23.92700005	0	0	0	0	0	1.0
31	23.92700005	0	0	0	0	0	1.0
32	23.92700005	0	0	0	0	0	1.0
[LeftHandMiddle1]
30	95.33399963	0	0	-2.016103268	4.047191143	-31.27751541	1.0
31	95.33399963	0	0	-2.031342506	3.832612514	-31.45234871	1.0
32	95.33399963	0	0	-2.056049109	3.57121253	-31.73569298	1.0
[LeftHandMiddle2]
30	36.98199844	0	0	-0.3041485548	1.860566378	-18.56677628	1.0
31	36.98199844	0	0	-0.3037695587	1.859431982	-18.55504036	1.0
32	36.98199844	0	0	-0.3022444546	1.85487783	-18.50788689	1.0
[LeftHandMiddle3]
30	29.50900078	0	0	-0.1098224148	1.127655387	-11.12438679	1.0
31	29.50900078	0	0	-0.1095897779	1.126487613	-11.11271	1.0
32	29.50900078	0	0	-0.1086676121	1.121785879	-11.06570053	1.0
[LeftHandMiddle4]
30	28.3390007	0	0	0	0	0	1.0
31	28.3390007	0	0	0	0	0	1.0
32	28.3390007	0	0	0	0	0	1.0
[LeftHandRing1]
30	91.04499817	-0.4390000105	-18.65100098	-2.144567728	7.197861195	-32.73471069	1.0
31	91.04499817	-0.4390000105	-18.65100098	-2.151064873	7.236567974	-32.80754852	1.0
32	91.04499817	-0.4390000105	-18.65100098	-2.184146166	7.235805988	-33.17232895	1.0
[LeftHandRing2]
30	31.54000092	0	0	-0.4633104205	2.279980898	-22.97038078	1.0
31	31.54000092	0	0	-0.4664663672	2.28739953	-23.04951668	1.0
32	31.54000092	0	0	-0.4707738459	2.29748559	-23.15718651	1.0
[LeftHandRing3]
30	29.37700081	0	0	-0.3322721422	1.942228436	-19.41422272	1.0
31	29.37700081	0	0	-0.3349715769	1.949877262	-19.49382973	1.0
32	29.37700081	0	0	-0.3386875689	1.960325122	-19.60265732	1.0
[LeftHandRing4]
30	26.47500038	0	0	0	0	0	1.0
31	26.47500038	0	0	0	0	0	1.0
32	26.47500038	0	0	0	0	0	1.0
[LeftHandPinky1]
30	80.77799988	-4.887000084	-38.06099701	-2.5352211	5.385426998	-36.93799591	1.0
31	80.77799988	-4.887000084	-38.06099701	-2.522052526	5.406359196	-36.79846573	1.0
32	80.77799988	-4.887000084	-38.06099701	-2.525974035	5.105574608	-36.84064865	1.0
[LeftHandPinky2]
30	36	0	0	-0.4952583909	2.353865623	-23.76062393	1.0
31	36	0	0	-0.4996439815	2.363785505	-23.86709213	1.0
32	36	0	0	-0.5042351484	2.374131918	-23.97819138	1.0
[LeftHandPinky3]
30	21.14200211	0	0	-0.2155362517	1.572421789	-15.60896301	1.0
31	21.14200211	0	0	-0.2185811847	1.58328867	-15.71965122	1.0
32	21.14200211	0	0	-0.2218365073	1.594786525	-15.8368969	1.0
[LeftHandPinky4]
30	19.75699997	0	0	0	0	0	1.0
31	19.75699997	0	0	0	0	0	1.0
32	19.75699997	0	0	0	0	0	1.0
[RightShoulder]
30	-45.70000076	109.4620056	-26.28000069	0.6165875793	-3.0047822	9.83130455	1.0
31	-45.70000076	109.4620056	-26.28000069	0.480632931	-2.291631699	9.745872498	1.0
32	-45.70000076	109.4620056	-26.28000069	0.3719032705	-1.634812355	9.809650421	1.0
[RightArm]
30	-105.9280014	-5.248000145	-22.32099915	15.42163849	4.46197176	62.89467239	1.0
31	-105.9280014	-5.248000145	-22.32099915	15.70277214	5.675095558	63.96909714	1.0
32	-105.9280014	-5.248000145	-22.32099915	16.63881302	6.992232323	64.67684174	1.0
[RightForeArm]
30	-278.414978	0	0	-3.865128747e-06	7.476084232	-4.708688266e-06	1.0
31	-278.414978	0	0	-5.534858246e-06	8.891266823	-1.562090256e-05	1.0
32	-278.414978	0	0	3.76573098e-06	10.47836781	-5.541415703e-06	1.0
[RightHand]
30	-283.2879944	0	0.0009999999311	5.761198997	3.621597528	-0.8795354962	1.0
31	-283.2879944	0	0.0009999999311	5.608662605	5.217241764	1.718018889	1.0
32	-283.2879944	0	0.0009999999311	5.803017616	6.395886421	3.352795839	1.0
[RightHandPinky1]
30	-80.76699829	-4.885000229	-38.06000137	-1.736189365	-1.557981014	30.06744003	1.0
31	-80.76699829	-4.885000229	-38.06000137	-1.722158194	-2.018378258	29.86690331	1.0
32	-80.76699829	-4.885000229	-38.06000137	-1.706326485	-2.427390814	29.64615822	1.0
[RightHandPinky2]
30	-36	0	0.0009999999311	-0.3895084262	-1.860618949	23.66529465	1.0
31	-36	0	0.0009999999311	-0.3836810887	-1.847274542	23.48541641	1.0
32	-36	0	0.0009999999311	-0.3787946701	-1.835964441	23.33325768	1.0
[RightHandPinky3]
30	-21.14200211	0	0	-0.4446666539	-1.981773019	25.29123116	1.0
31	-21.14200211	0	0	-0.4392406344	-1.970268607	25.13364792	1.0
32	-21.14200211	0	0	-0.4333713949	-1.957676649	24.96219826	1.0
[RightHandPinky4]
30	-19.75699997	0	0	0	0	0	1.0
31	-19.75699997	0	0	0	0	0	1.0
32	-19.75699997	0	0	0	0	0	1.0
[RightHandRing1]
30	-91.03599548	-0.4390000105	-18.65100098	-1.983684659	-2.319674969	33.47351837	1.0
31	-91.03599548	-0.4390000105	-18.65100098	-1.943087459	-2.546358347	32.94786835	1.0
32	-91.03599548	-0.4390000105	-18.65100098	-1.919968605	-2.668963909	32.64783478	1.0
[RightHandRing2]
30	-31.54000092	0	0	-0.6989787221	-2.448282003	31.86332893	1.0
31	-31.54000092	0	0	-0.7053693533	-2.458533764	32.01275635	1.0
32	-31.54000092	0	0	-0.7081515193	-2.462990046	32.07782745	1.0
[RightHandRing3]
30	-29.37700081	0	0	-0.7768158913	-2.569157362	33.64159775	1.0
31	-29.37700081	0	0	-0.7836359739	-2.579375267	33.793396	1.0
32	-29.37700081	0	0	-0.7866051197	-2.583820343	33.859478	1.0
[RightHandRing4]
30	-26.47500038	0	0	0	0	0	1.0
31	-26.47500038	0	0	0	0	0	1.0
32	-26.47500038	0	0	0	0	0	1.0
[RightHandMiddle1]
30	-95.32500458	0	0	-2.318510532	-1.194936633	37.69945908	1.0
31	-95.32500458	0	0	-2.275089264	-1.113680243	37.1676178	1.0
32	-95.32500458	0	0	-2.230787039	-1.012212396	36.62228394	1.0
[RightHandMiddle2]
30	-36.98199844	0	0	-0.4391584694	-1.970042586	25.1307888	1.0
31	-36.98199844	0	0	-0.4383828044	-1.968401313	25.10860252	1.0
32	-36.98199844	0	0	-0.4375981688	-1.966721177	25.08566475	1.0
[RightHandMiddle3]
30	-29.50900078	0	0	-0.3060818315	-1.659217119	20.92866898	1.0
31	-29.50900078	0	0	-0.3054510057	-1.657524586	20.90629959	1.0
32	-29.50900078	0	0	-0.3047800064	-1.655775547	20.88316154	1.0
[RightHandMiddle4]
30	-28.3390007	0	0.0009999999311	0	0	0	1.0
31	-28.3390007	0	0.0009999999311	0	0	0	1.0
32	-28.3390007	0	0.0009999999311	0	0	0	1.0
[RightHandIndex1]
30	-91.08300018	-5.167999744	22.60099792	-1.381348014	6.937059879	26.2241478	1.0
31	-91.08300018	-5.167999744	22.60099792	-1.261688709	6.99217844	24.56352425	1.0
32	-91.08300018	-5.167999744	22.60099792	-1.141609192	6.991931438	22.84000778	1.0
[RightHandIndex2]
30	-36.76399994	0	0	-0.5665650964	-2.221334934	28.61421013	1.0
31	-36.76399994	0	0	-0.5672941804	-2.222685337	28.63323975	1.0
32	-36.76399994	0	0	-0.5683848858	-2.224663019	28.66109467	1.0
[RightHandIndex3]
30	-28.83100128	0	0	-0.2322421223	-1.449478865	18.20471573	1.0
31	-28.83100128	0	0	-0.232726261	-1.450955033	18.22393417	1.0
32	-28.83100128	0	0	-0.2334316671	-1.453081369	18.25178719	1.0
[RightHandIndex4]
30	-23.92700005	0	0	0	0	0	1.0
31	-23.92700005	0	0	0	0	0	1.0
32	-23.92700005	0	0	0	0	0	1.0
[RightHandThumb1]
30	-24.64799881	-15.72700024	26.82600021	30.15343666	21.14214134	-10.25145817	1.0
31	-24.64799881	-15.72700024	26.82600021	30.15343666	21.14214134	-10.25145817	1.0
32	-24.64799881	-15.72700024	26.82600021	30.15343666	21.14214134	-10.25145817	1.0
[RightHandThumb2]
30	-32.29800034	-18.64699936	18.64699936	12.85205364	-20.46171379	1.723483443	1.0
31	-32.29800034	-18.64699936	18.64699936	11.82034302	-21.37636566	1.319966555	1.0
32	-32.29800034	-18.64699936	18.64699936	10.71507549	-21.60230637	0.8678863049	1.0
[RightHandThumb3]
30	-26.52600098	-15.31399918	15.31399918	-11.94501877	-13.44684505	-10.39176655	1.0
31	-26.52600098	-15.31399918	15.31399918	-11.90436554	-13.53972244	-10.36612225	1.0
32	-26.52600098	-15.31399918	15.31399918	-11.85991669	-13.64204502	-10.33810997	1.0
[RightHandThumb4]
30	-19.54599953	-11.28499985	11.28499985	0	0	0	1.0
31	-19.54599953	-11.28499985	11.28499985	0	0	0	1.0
32	-19.54599953	-11.28499985	11.28499985	0	0	0	1.0
[LeftUpLeg]
30	82.07800293	-67.51699829	-15.99599934	-17.41210747	14.61639118	1.690595984	1.0
31	82.07800293	-67.51699829	-15.99599934	-24.54468918	14.704566	0.304438144	1.0
32	82.07800293	-67.51699829	-15.99599934	-30.35203743	14.66601181	-0.2952767313	1.0
[LeftLeg]
30	0	-443.7049866	2.845999956	68.24467468	-2.658271551	-8.644415855	1.0
31	0	-443.7049866	2.845999956	67.58039093	-1.519943714	-4.903235435	1.0
32	0	-443.7049866	2.845999956	62.31736755	-0.8223659992	-2.32420826	1.0
[LeftFoot]
30	0	-444.2789917	-29.8219986	3.816157818	-2.105121613	-2.908219576	1.0
31	0	-444.2789917	-29.8219986	0.2479479462	-0.5098896623	0.8650451303	1.0
32	0	-444.2789917	-29.8219986	-2.797711611	-0.1092390493	1.992383242	1.0
[LeftToeBase]
30	0	-87.28699493	107.1060028	-10.35338116	1.014999634e-05	2.01139228e-05	1.0
31	0	-87.28699493	107.1060028	-9.048368454	2.040490835e-05	-1.599307143e-05	1.0
32	0	-87.28699493	107.1060028	-8.964894295	-1.189643535e-05	9.285907254e-06	1.0
[RightUpLeg]
30	-82.07800293	-67.51699829	-15.99599934	-35.20937729	0.5803192258	8.340641975	1.0
31	-82.07800293	-67.51699829	-15.99599934	-31.12483978	-0.02642042376	5.687674999	1.0
32	-82.07800293	-67.51699829	-15.99599934	-26.88246346	-0.5751539469	2.969305277	1.0
[RightLeg]
30	0	-443.7049866	2.861999989	34.47344971	1.5496943	1.122789741	1.0
31	0	-443.7049866	2.861999989	32.15372467	3.58434701	2.302331924	1.0
32	0	-443.7049866	2.861999989	28.73116493	4.952121258	2.73853159	1.0
[RightFoot]
30	0	-444.2770081	-29.83799934	-5.542300701	0.638969481	-3.199766397	1.0
31	0	-444.2770081	-29.83799934	-7.52981329	0.6495991349	-2.32692337	1.0
32	0	-444.2770081	-29.83799934	-8.970394135	0.7157790661	-1.239901185	1.0
[RightToeBase]
30	0	-87.28699493	107.1060028	-6.010778427	1.531028283e-05	3.792586085e-06	1.0
31	0	-87.28699493	107.1060028	-6.01077652	-2.117136091e-06	2.460045152e-06	1.0
32	0	-87.28699493	107.1060028	-6.010777473	1.146942304e-05	2.003220914e-07	1.0
[EndOfFile]
